<mxfile host="app.diagrams.net" modified="2022-12-29T02:04:13.573Z" agent="5.0 (Windows NT 10.0; Win64; x64) AppleWebKit/537.36 (KHTML, like Gecko) Chrome/108.0.0.0 Safari/537.36" etag="1YHXf7MiqQxcWk7pw0tD" version="20.7.4" type="github">
  <diagram id="418W4jlaPwujCMKIHAgW" name="ADU">
    <mxGraphModel dx="1195" dy="1643" grid="0" gridSize="10" guides="1" tooltips="1" connect="1" arrows="1" fold="1" page="0" pageScale="1" pageWidth="827" pageHeight="1169" math="0" shadow="0">
      <root>
        <mxCell id="0" />
        <mxCell id="1" parent="0" />
        <mxCell id="uamKRPyw8gT0QKa7O1IL-6" value="" style="shape=process;whiteSpace=wrap;html=1;backgroundOutline=1;" vertex="1" parent="1">
          <mxGeometry x="-26" y="-120" width="752" height="378" as="geometry" />
        </mxCell>
        <mxCell id="uamKRPyw8gT0QKa7O1IL-7" value="usuario&lt;br&gt;" style="shape=umlActor;verticalLabelPosition=bottom;verticalAlign=top;html=1;outlineConnect=0;" vertex="1" parent="1">
          <mxGeometry x="-4" y="-46" width="30" height="60" as="geometry" />
        </mxCell>
        <mxCell id="uamKRPyw8gT0QKa7O1IL-9" value="sistema &lt;br&gt;adu" style="shape=umlActor;verticalLabelPosition=bottom;verticalAlign=top;html=1;outlineConnect=0;" vertex="1" parent="1">
          <mxGeometry x="672" y="-60" width="30" height="60" as="geometry" />
        </mxCell>
        <mxCell id="uamKRPyw8gT0QKa7O1IL-17" value="" style="edgeStyle=orthogonalEdgeStyle;rounded=0;orthogonalLoop=1;jettySize=auto;html=1;" edge="1" parent="1" source="uamKRPyw8gT0QKa7O1IL-15" target="uamKRPyw8gT0QKa7O1IL-16">
          <mxGeometry relative="1" as="geometry" />
        </mxCell>
        <mxCell id="uamKRPyw8gT0QKa7O1IL-15" value="&lt;p style=&quot;margin:0px;margin-top:4px;text-align:center;&quot;&gt;&lt;i&gt;&amp;lt;&amp;lt;Interface&amp;gt;&amp;gt;&lt;/i&gt;&lt;br&gt;&lt;b&gt;Contacto&lt;/b&gt;&lt;/p&gt;&lt;p style=&quot;margin:0px;margin-left:4px;&quot;&gt;+ email: string&lt;br&gt;+ : id&lt;/p&gt;&lt;hr size=&quot;1&quot;&gt;&lt;p style=&quot;margin:0px;margin-left:4px;&quot;&gt;+ method1(Type): Type&lt;br&gt;+ method2(Type, Type): Type&lt;/p&gt;" style="verticalAlign=top;align=left;overflow=fill;fontSize=12;fontFamily=Helvetica;html=1;" vertex="1" parent="1">
          <mxGeometry x="1350" y="-20" width="190" height="140" as="geometry" />
        </mxCell>
        <mxCell id="uamKRPyw8gT0QKa7O1IL-16" value="&lt;p style=&quot;margin:0px;margin-top:4px;text-align:center;&quot;&gt;&lt;i&gt;&amp;lt;&amp;lt;Interface&amp;gt;&amp;gt;&lt;/i&gt;&lt;br&gt;&lt;b&gt;Numero&lt;/b&gt;&lt;/p&gt;&lt;p style=&quot;margin:0px;margin-left:4px;&quot;&gt;+ id: long&lt;br&gt;+ : Type&lt;/p&gt;&lt;hr size=&quot;1&quot;&gt;&lt;p style=&quot;margin:0px;margin-left:4px;&quot;&gt;+ method1(Type): Type&lt;br&gt;+ method2(Type, Type): Type&lt;/p&gt;" style="verticalAlign=top;align=left;overflow=fill;fontSize=12;fontFamily=Helvetica;html=1;" vertex="1" parent="1">
          <mxGeometry x="1080" y="-20" width="190" height="140" as="geometry" />
        </mxCell>
        <mxCell id="uamKRPyw8gT0QKa7O1IL-28" value="REGLA QUE SE ME OCURREN:&lt;br&gt;&lt;br&gt;1- por seguridad se manejaran tadas las clases con el codigo, para que el codigo productivo podramos cambiar el nombre de las clasees por pichula o algo asi y funcione solo con el codigo par aques ea mas injakiable :v jeje&lt;br&gt;2. niveles de seguridad hay como 5&amp;nbsp;" style="shape=note;whiteSpace=wrap;html=1;backgroundOutline=1;darkOpacity=0.05;" vertex="1" parent="1">
          <mxGeometry x="1117" y="-990" width="512" height="324" as="geometry" />
        </mxCell>
        <mxCell id="uamKRPyw8gT0QKa7O1IL-35" value="" style="edgeStyle=orthogonalEdgeStyle;rounded=0;orthogonalLoop=1;jettySize=auto;html=1;" edge="1" parent="1" source="uamKRPyw8gT0QKa7O1IL-30" target="uamKRPyw8gT0QKa7O1IL-34">
          <mxGeometry relative="1" as="geometry" />
        </mxCell>
        <mxCell id="uamKRPyw8gT0QKa7O1IL-30" value="Usuario" style="shape=umlActor;verticalLabelPosition=bottom;verticalAlign=top;html=1;outlineConnect=0;" vertex="1" parent="1">
          <mxGeometry x="1466" y="387" width="30" height="60" as="geometry" />
        </mxCell>
        <mxCell id="uamKRPyw8gT0QKa7O1IL-39" style="edgeStyle=orthogonalEdgeStyle;rounded=0;orthogonalLoop=1;jettySize=auto;html=1;" edge="1" parent="1" source="uamKRPyw8gT0QKa7O1IL-34" target="uamKRPyw8gT0QKa7O1IL-38">
          <mxGeometry relative="1" as="geometry">
            <Array as="points">
              <mxPoint x="1612" y="479" />
              <mxPoint x="1554" y="479" />
            </Array>
          </mxGeometry>
        </mxCell>
        <mxCell id="uamKRPyw8gT0QKa7O1IL-41" value="" style="edgeStyle=orthogonalEdgeStyle;rounded=0;orthogonalLoop=1;jettySize=auto;html=1;" edge="1" parent="1" source="uamKRPyw8gT0QKa7O1IL-34" target="uamKRPyw8gT0QKa7O1IL-40">
          <mxGeometry relative="1" as="geometry" />
        </mxCell>
        <mxCell id="uamKRPyw8gT0QKa7O1IL-45" style="edgeStyle=orthogonalEdgeStyle;rounded=0;orthogonalLoop=1;jettySize=auto;html=1;" edge="1" parent="1" source="uamKRPyw8gT0QKa7O1IL-34">
          <mxGeometry relative="1" as="geometry">
            <mxPoint x="1646.5" y="858.5416981090198" as="targetPoint" />
          </mxGeometry>
        </mxCell>
        <mxCell id="uamKRPyw8gT0QKa7O1IL-34" value="&lt;div style=&quot;&quot;&gt;&lt;span style=&quot;background-color: initial;&quot;&gt;Completar datos&amp;nbsp;&lt;/span&gt;&lt;br&gt;&lt;/div&gt;&lt;div style=&quot;&quot;&gt;&lt;span style=&quot;background-color: initial;&quot;&gt;para el registro&lt;/span&gt;&lt;br&gt;&lt;/div&gt;" style="rounded=1;whiteSpace=wrap;html=1;verticalAlign=top;arcSize=0;align=center;fillColor=#dae8fc;strokeColor=#6c8ebf;" vertex="1" parent="1">
          <mxGeometry x="1589" y="395.5" width="115" height="43" as="geometry" />
        </mxCell>
        <mxCell id="uamKRPyw8gT0QKa7O1IL-38" value="Modulo de registro:&lt;br&gt;Usuario&lt;br&gt;Contacto&lt;br&gt;Persona" style="shape=note;whiteSpace=wrap;html=1;backgroundOutline=1;darkOpacity=0.05;fillColor=#fff2cc;strokeColor=#d6b656;" vertex="1" parent="1">
          <mxGeometry x="1491" y="519" width="126" height="115" as="geometry" />
        </mxCell>
        <mxCell id="uamKRPyw8gT0QKa7O1IL-40" value="" style="whiteSpace=wrap;html=1;verticalAlign=top;rounded=1;arcSize=0;" vertex="1" parent="1">
          <mxGeometry x="1765" y="387" width="120" height="60" as="geometry" />
        </mxCell>
        <mxCell id="uamKRPyw8gT0QKa7O1IL-43" value="Front End&lt;br&gt;React&lt;br&gt;Adu" style="whiteSpace=wrap;html=1;verticalAlign=top;rounded=1;arcSize=0;fillColor=#dae8fc;strokeColor=#6c8ebf;" vertex="1" parent="1">
          <mxGeometry x="2383" y="286" width="120" height="60" as="geometry" />
        </mxCell>
        <mxCell id="uamKRPyw8gT0QKa7O1IL-46" value="Backend&lt;br&gt;Java&lt;br&gt;Adu" style="whiteSpace=wrap;html=1;verticalAlign=top;rounded=1;arcSize=0;fillColor=#dae8fc;strokeColor=#6c8ebf;" vertex="1" parent="1">
          <mxGeometry x="2383" y="383" width="120" height="60" as="geometry" />
        </mxCell>
        <mxCell id="uamKRPyw8gT0QKa7O1IL-52" style="edgeStyle=orthogonalEdgeStyle;rounded=0;orthogonalLoop=1;jettySize=auto;html=1;" edge="1" parent="1" source="uamKRPyw8gT0QKa7O1IL-48" target="uamKRPyw8gT0QKa7O1IL-50">
          <mxGeometry relative="1" as="geometry" />
        </mxCell>
        <mxCell id="uamKRPyw8gT0QKa7O1IL-48" value="cl.subox.ms.adu" style="swimlane;startSize=23;" vertex="1" parent="1">
          <mxGeometry x="2659" y="-288" width="252" height="124" as="geometry">
            <mxRectangle x="2622" y="-391" width="129" height="26" as="alternateBounds" />
          </mxGeometry>
        </mxCell>
        <mxCell id="uamKRPyw8gT0QKa7O1IL-11" value="Modulo de registro:&lt;br&gt;CONTACTO" style="shape=image;html=1;verticalAlign=top;verticalLabelPosition=bottom;labelBackgroundColor=#ffffff;imageAspect=0;image=https://cdn1.iconfinder.com/data/icons/hawcons/32/699239-icon-13-file-java-128.png;dashed=0;fontFamily=Helvetica;fontSize=12;fontColor=default;align=center;strokeColor=default;fillColor=default;" vertex="1" parent="uamKRPyw8gT0QKa7O1IL-48">
          <mxGeometry x="150" y="28" width="54" height="46" as="geometry" />
        </mxCell>
        <mxCell id="uamKRPyw8gT0QKa7O1IL-10" value="Modulo de registro:&lt;br&gt;PERSONA" style="shape=image;html=1;verticalAlign=top;verticalLabelPosition=bottom;labelBackgroundColor=#ffffff;imageAspect=0;image=https://cdn1.iconfinder.com/data/icons/hawcons/32/699239-icon-13-file-java-128.png;dashed=0;fontFamily=Helvetica;fontSize=12;fontColor=default;align=center;strokeColor=default;fillColor=default;" vertex="1" parent="uamKRPyw8gT0QKa7O1IL-48">
          <mxGeometry x="36" y="28" width="51.5" height="44" as="geometry" />
        </mxCell>
        <mxCell id="uamKRPyw8gT0QKa7O1IL-49" value="Container" style="swimlane;" vertex="1" parent="1">
          <mxGeometry x="1920" y="-122" width="569" height="306" as="geometry" />
        </mxCell>
        <mxCell id="uamKRPyw8gT0QKa7O1IL-50" value="DB ADU" style="shape=cylinder3;whiteSpace=wrap;html=1;boundedLbl=1;backgroundOutline=1;size=15;" vertex="1" parent="1">
          <mxGeometry x="2980" y="-266" width="60" height="80" as="geometry" />
        </mxCell>
        <mxCell id="uamKRPyw8gT0QKa7O1IL-12" value="Modulo de registro:&lt;br&gt;USUARIO" style="shape=image;html=1;verticalAlign=top;verticalLabelPosition=bottom;labelBackgroundColor=#ffffff;imageAspect=0;image=https://cdn1.iconfinder.com/data/icons/hawcons/32/699239-icon-13-file-java-128.png;dashed=0;fontFamily=Helvetica;fontSize=12;fontColor=default;align=center;strokeColor=default;fillColor=default;" vertex="1" parent="1">
          <mxGeometry x="2513" y="-410" width="60" height="40" as="geometry" />
        </mxCell>
      </root>
    </mxGraphModel>
  </diagram>
</mxfile>
